<?xml version="1.0" standalone="no"?>
<!DOCTYPE svg PUBLIC "-//W3C//DTD SVG 20010904//EN"
 "http://www.w3.org/TR/2001/REC-SVG-20010904/DTD/svg10.dtd">
<svg version="1.0" xmlns="http://www.w3.org/2000/svg"
 width="200.000000pt" height="200.000000pt" viewBox="0 0 200.000000 200.000000"
 preserveAspectRatio="xMidYMid meet">
<metadata>
Created by potrace 1.11, written by Peter Selinger 2001-2013
</metadata>
<g transform="translate(0.000000,200.000000) scale(0.100000,-0.100000)"
fill="#000000" stroke="none">
<path d="M947 1740 c-26 -16 -50 -30 -53 -30 -2 0 -23 -12 -47 -27 -23 -15
-51 -32 -62 -38 -17 -9 -214 -122 -263 -150 -9 -5 -47 -27 -84 -47 -36 -21
-78 -52 -92 -69 l-26 -31 0 -363 c0 -331 2 -364 17 -382 15 -17 180 -114 423
-250 19 -11 71 -42 115 -68 120 -73 129 -71 345 54 96 55 182 105 190 111 8 5
40 23 70 40 30 16 87 49 125 72 l70 43 3 360 c2 260 0 370 -9 397 -12 36 -26
46 -283 194 -305 177 -372 214 -384 214 -4 0 -29 -13 -55 -30z"/>
<path d="M1503 1701 c-2 -10 -16 -24 -29 -30 -13 -6 -24 -17 -24 -25 0 -15 30
-44 30 -30 1 5 8 -3 16 -18 8 -16 19 -28 25 -28 10 0 79 65 79 75 0 11 -69 75
-81 75 -6 0 -13 -8 -16 -19z"/>
<path d="M482 1688 c-7 -7 -12 -18 -12 -25 0 -7 -4 -13 -9 -13 -5 0 -17 -7
-26 -16 -14 -15 -12 -19 25 -56 33 -34 43 -38 55 -28 8 7 15 19 15 26 0 8 6
14 13 14 7 0 18 5 25 12 14 14 -2 48 -23 48 -8 0 -15 7 -15 15 0 21 -34 37
-48 23z"/>
<path d="M1537 439 c-9 -6 -15 -14 -12 -20 4 -5 -5 -14 -19 -21 -30 -13 -35
-48 -7 -55 10 -2 24 -16 30 -29 9 -21 14 -23 31 -14 11 6 20 17 20 25 0 8 8
15 19 15 10 0 21 9 24 19 5 21 -9 41 -30 41 -7 0 -13 6 -13 14 0 22 -23 36
-43 25z"/>
</g>
</svg>
